<svg xmlns="http://www.w3.org/2000/svg" viewBox="0 0 1000 1000" width="1000" height="1000">
	<defs>
		<linearGradient id="grd1" gradientUnits="userSpaceOnUse"  x1="543.891" y1="717.702" x2="530.022" y2="637.755">
			<stop offset="0" stop-color="#fc865b"  />
			<stop offset="1" stop-color="#fc865b" stop-opacity="0" />
		</linearGradient>
	</defs>
	<style>
		tspan { white-space:pre }
		.shp0 { opacity: 0.302;fill: #c0d8ff } 
		.shp1 { fill: #c0d8ff } 
		.shp2 { opacity: 0.502;mix-blend-mode: multiply;fill: #415487 } 
		.shp3 { fill: #ffa480 } 
		.shp4 { fill: #415487 } 
		.shp5 { fill: #76a1e5 } 
		.shp6 { opacity: 0.6;mix-blend-mode: multiply;fill: url(#grd1) } 
		.shp7 { fill: #ef8762 } 
		.shp8 { fill: #2d3244 } 
		.shp9 { fill: #ffffff } 
		.shp10 { fill: #5373b3 } 
	</style>
	<g >
		<path class="shp0" d="M106.88 859.17L911.68 859.17C965.42 631.54 971.36 484.55 929.52 418.21C828.27 257.67 225.37 167.79 106.92 277.89C27.95 351.29 27.94 545.05 106.88 859.17Z" />
	</g>
	<g >
		<g >
			<g >
				<g >
					<g >
						<path class="shp1" d="M809.68 406.43L788.16 406.43C786.94 406.43 785.95 405.45 785.95 404.23C785.95 403.01 786.94 402.03 788.16 402.03L809.68 402.03C810.89 402.03 811.88 403.01 811.88 404.23C811.88 405.45 810.89 406.43 809.68 406.43Z" />
						<path class="shp1" d="M801.12 393.47L801.12 414.99C801.12 416.21 800.13 417.19 798.92 417.19C797.7 417.19 796.72 416.21 796.72 414.99L796.72 393.47C796.72 392.25 797.7 391.27 798.92 391.27C800.13 391.27 801.12 392.25 801.12 393.47Z" />
					</g>
					<g >
						<path class="shp1" d="M932.77 800.07L911.25 800.07C910.03 800.07 909.05 799.08 909.05 797.87C909.05 796.65 910.03 795.66 911.25 795.66L932.77 795.66C933.99 795.66 934.97 796.65 934.97 797.87C934.97 799.08 933.99 800.07 932.77 800.07Z" />
						<path class="shp1" d="M924.21 787.11L924.21 808.63C924.21 809.84 923.23 810.83 922.01 810.83C920.79 810.83 919.81 809.84 919.81 808.63L919.81 787.11C919.81 785.89 920.79 784.9 922.01 784.9C923.23 784.9 924.21 785.89 924.21 787.11Z" />
					</g>
					<g >
						<path class="shp1" d="M419.28 156.19L397.76 156.19C396.54 156.19 395.55 155.2 395.55 153.99C395.55 152.77 396.54 151.79 397.76 151.79L419.28 151.79C420.49 151.79 421.48 152.77 421.48 153.99C421.48 155.2 420.49 156.19 419.28 156.19Z" />
						<path class="shp1" d="M410.72 143.23L410.72 164.75C410.72 165.96 409.73 166.95 408.52 166.95C407.3 166.95 406.32 165.96 406.32 164.75L406.32 143.23C406.32 142.01 407.3 141.02 408.52 141.02C409.73 141.02 410.72 142.01 410.72 143.23Z" />
					</g>
					<g >
						<path class="shp1" d="M82.55 736.11L61.03 736.11C59.82 736.11 58.83 735.13 58.83 733.91C58.83 732.69 59.82 731.71 61.03 731.71L82.55 731.71C83.77 731.71 84.76 732.69 84.76 733.91C84.76 735.13 83.77 736.11 82.55 736.11Z" />
						<path class="shp1" d="M74 723.15L74 744.67C74 745.89 73.01 746.87 71.79 746.87C70.58 746.87 69.59 745.89 69.59 744.67L69.59 723.15C69.59 721.93 70.58 720.95 71.79 720.95C73.01 720.95 74 721.93 74 723.15Z" />
					</g>
					<g >
						<path class="shp1" d="M520.65 641.43L499.13 641.43C497.91 641.43 496.93 640.44 496.93 639.23C496.93 638.01 497.91 637.03 499.13 637.03L520.65 637.03C521.87 637.03 522.85 638.01 522.85 639.23C522.85 640.44 521.87 641.43 520.65 641.43Z" />
						<path class="shp1" d="M512.09 628.47L512.09 649.99C512.09 651.21 511.1 652.19 509.89 652.19C508.67 652.19 507.69 651.21 507.69 649.99L507.69 628.47C507.69 627.25 508.67 626.27 509.89 626.27C511.1 626.27 512.09 627.25 512.09 628.47Z" />
					</g>
					<path class="shp1" d="M887.95 457.4L852.88 457.4C851.67 457.4 850.68 456.41 850.68 455.19C850.68 453.98 851.67 452.99 852.88 452.99L887.95 452.99C889.17 452.99 890.15 453.98 890.15 455.19C890.15 456.41 889.17 457.4 887.95 457.4Z" />
					<path class="shp1" d="M928.08 465.91C928.08 467.13 927.1 468.11 925.88 468.11L869.04 468.11C867.82 468.11 866.82 467.13 866.82 465.91C866.82 464.69 867.82 463.71 869.04 463.71L925.88 463.71C927.1 463.71 928.08 464.69 928.08 465.91Z" />
					<path class="shp1" d="M135.26 810.83C135.26 812.05 134.28 813.03 133.06 813.03L76.22 813.03C75 813.03 74 812.05 74 810.83C74 809.61 75 808.63 76.22 808.63L133.06 808.63C134.28 808.63 135.26 809.61 135.26 810.83Z" />
					<path class="shp1" d="M315.25 238.99L280.19 238.99C278.97 238.99 277.99 238 277.99 236.78C277.99 235.57 278.97 234.58 280.19 234.58L315.25 234.58C316.47 234.58 317.46 235.57 317.46 236.78C317.46 238 316.47 238.99 315.25 238.99Z" />
					<path class="shp1" d="M387.05 227.33C387.05 228.55 386.05 229.53 384.83 229.53L330.03 229.53C328.83 229.53 327.83 228.55 327.83 227.33C327.83 226.11 328.83 225.13 330.03 225.13L384.83 225.13C386.05 225.13 387.05 226.11 387.05 227.33Z" />
					<path class="shp1" d="M355.38 247.5C355.38 248.72 354.4 249.7 353.18 249.7L296.34 249.7C295.12 249.7 294.12 248.72 294.12 247.5C294.12 246.28 295.12 245.3 296.34 245.3L353.18 245.3C354.4 245.3 355.38 246.28 355.38 247.5Z" />
					<path class="shp1" d="M615.59 162.28L580.53 162.28C579.31 162.28 578.32 161.3 578.32 160.08C578.32 158.87 579.31 157.88 580.53 157.88L615.59 157.88C616.81 157.88 617.79 158.87 617.79 160.08C617.79 161.3 616.81 162.28 615.59 162.28Z" />
					<path class="shp1" d="M151.62 825.11L116.55 825.11C115.34 825.11 114.35 824.13 114.35 822.91C114.35 821.69 115.34 820.71 116.55 820.71L151.62 820.71C152.83 820.71 153.82 821.69 153.82 822.91C153.82 824.13 152.83 825.11 151.62 825.11Z" />
					<path class="shp1" d="M585.92 148.9C585.92 150.12 584.94 151.1 583.72 151.1L526.88 151.1C525.66 151.1 524.66 150.12 524.66 148.9C524.66 147.68 525.66 146.7 526.88 146.7L583.72 146.7C584.94 146.7 585.92 147.68 585.92 148.9Z" />
					<path class="shp1" d="M585.47 169.99C585.47 171.21 584.49 172.19 583.27 172.19L489.79 172.19C488.57 172.19 487.57 171.21 487.57 169.99C487.57 168.77 488.57 167.79 489.79 167.79L583.27 167.79C584.49 167.79 585.47 168.77 585.47 169.99Z" />
				</g>
				<g >
					<g >
						<path class="shp2" d="M542.66 578.73L160.72 578.73L160.72 308.86L542.66 308.86L542.66 578.73Z" />
						<g >
							<path class="shp1" d="M512.35 549.03L130.41 549.03L130.41 279.16L512.35 279.16L512.35 549.03Z" />
							<path class="shp3" d="M512.35 307.29L130.41 307.29L130.41 279.16L512.35 279.16L512.35 307.29Z" />
							<g >
								<path class="shp4" d="M279.38 425.22L163.44 425.22L163.44 420.29L279.38 420.29L279.38 425.22Z" />
								<path class="shp4" d="M268.48 434.68L163.44 434.68L163.44 429.75L268.48 429.75L268.48 434.68Z" />
								<path class="shp4" d="M229.92 444.14L163.44 444.14L163.44 439.21L229.92 439.21L229.92 444.14Z" />
								<path class="shp4" d="M272.1 453.6L163.44 453.6L163.44 448.67L272.1 448.67L272.1 453.6Z" />
								<path class="shp4" d="M279.38 463.05L163.44 463.05L163.44 458.13L279.38 458.13L279.38 463.05Z" />
								<path class="shp4" d="M460.36 339.24L317 339.24L317 334.32L460.36 334.32L460.36 339.24Z" />
								<path class="shp4" d="M479.33 348.7L317 348.7L317 343.78L479.33 343.78L479.33 348.7Z" />
								<path class="shp4" d="M474.42 358.16L317 358.16L317 353.23L474.42 353.23L474.42 358.16Z" />
								<path class="shp4" d="M469.13 367.62L317 367.62L317 362.69L469.13 362.69L469.13 367.62Z" />
								<path class="shp4" d="M479.33 377.08L317 377.08L317 372.15L479.33 372.15L479.33 377.08Z" />
								<path class="shp4" d="M247.18 482.32L163.44 482.32L163.44 477.05L247.18 477.05L247.18 482.32Z" />
								<path class="shp4" d="M279.38 491.43L163.44 491.43L163.44 486.51L279.38 486.51L279.38 491.43Z" />
								<path class="shp4" d="M228.7 500.89L163.44 500.89L163.44 495.97L228.7 495.97L228.7 500.89Z" />
								<path class="shp4" d="M279.38 510.35L163.44 510.35L163.44 505.43L279.38 505.43L279.38 510.35Z" />
								<path class="shp4" d="M265.89 519.81L163.44 519.81L163.44 514.89L265.89 514.89L265.89 519.81Z" />
								<path class="shp4" d="M479.33 397.19L317 397.19L317 391.92L479.33 391.92L479.33 397.19Z" />
								<path class="shp4" d="M443.16 406.64L317 406.64L317 401.38L443.16 401.38L443.16 406.64Z" />
								<path class="shp4" d="M461.52 415.76L317 415.76L317 410.83L461.52 410.83L461.52 415.76Z" />
								<path class="shp4" d="M424.25 425.22L317 425.22L317 420.29L424.25 420.29L424.25 425.22Z" />
								<path class="shp4" d="M460.44 434.68L317 434.68L317 429.75L460.44 429.75L460.44 434.68Z" />
								<g >
									<path fill-rule="evenodd" class="shp4" d="M392.4 520L317.05 520L317.05 444.65L392.4 444.65L392.4 520ZM320.08 516.97L389.37 516.97L389.37 447.68L320.08 447.68L320.08 516.97Z" />
									<g >
										<path class="shp4" d="M389.82 519.56L317.49 447.23L319.64 445.09L391.96 517.41L389.82 519.56Z" />
										<path class="shp4" d="M319.64 519.56L317.49 517.41L389.82 445.09L391.96 447.23L319.64 519.56Z" />
									</g>
								</g>
								<g >
									<path fill-rule="evenodd" class="shp4" d="M480.84 520L405.49 520L405.49 444.65L480.84 444.65L480.84 520ZM408.52 516.97L477.81 516.97L477.81 447.68L408.52 447.68L408.52 516.97Z" />
									<g >
										<path class="shp4" d="M478.25 519.56L405.93 447.23L408.07 445.09L480.4 517.41L478.25 519.56Z" />
										<path class="shp4" d="M408.07 519.56L405.93 517.41L478.25 445.09L480.4 447.23L408.07 519.56Z" />
									</g>
								</g>
								<g >
									<path fill-rule="evenodd" class="shp4" d="M280.9 408.16L161.92 408.16L161.92 332.8L280.9 332.8L280.9 408.16ZM164.95 405.12L277.87 405.12L277.87 335.83L164.95 335.83L164.95 405.12Z" />
									<path class="shp4" d="M278.58 407.93L162.64 335.6L164.24 333.03L280.18 405.35L278.58 407.93Z" />
									<path class="shp4" d="M164.24 407.93L162.64 405.35L278.58 333.03L280.18 335.6L164.24 407.93Z" />
								</g>
							</g>
						</g>
					</g>
					<g >
						<g >
							<path class="shp2" d="M261.56 279.16L111.97 279.16L111.97 183.74L261.56 183.74L261.56 279.16Z" />
							<path class="shp1" d="M244.8 262.41L95.22 262.41L95.22 166.98L244.8 166.98L244.8 262.41Z" />
							<path class="shp3" d="M244.8 185.04L95.22 185.04L95.22 166.98L244.8 166.98L244.8 185.04Z" />
						</g>
						<g >
							<path class="shp2" d="M114.08 194.02L87.04 194.02L87.04 166.98L114.08 166.98L114.08 194.02Z" />
							<g >
								<path class="shp1" d="M106.92 186.85L79.88 186.85L79.88 159.81L106.92 159.81L106.92 186.85Z" />
								<g >
									<path class="shp4" d="M86.44 181.82L84.92 180.3L100.36 164.85L101.89 166.37L86.44 181.82Z" />
									<path class="shp4" d="M100.36 181.82L84.92 166.37L86.44 164.85L101.89 180.3L100.36 181.82Z" />
								</g>
							</g>
						</g>
						<path fill="#415487" d="M145.28 232.54L145.28 241.6Q142.18 243.21 138.81 244.03Q135.44 244.85 131.77 244.85Q120.85 244.85 114.46 238.76Q108.07 232.63 108.07 222.17Q108.07 211.69 114.46 205.59Q120.85 199.47 131.77 199.47Q135.44 199.47 138.81 200.29Q142.18 201.11 145.28 202.72L145.28 211.77Q142.15 209.63 139.1 208.64Q136.05 207.64 132.68 207.64Q126.65 207.64 123.19 211.51Q119.73 215.38 119.73 222.17Q119.73 228.94 123.19 232.81Q126.65 236.68 132.68 236.68Q136.05 236.68 139.1 235.68Q142.15 234.68 145.28 232.54ZM186.18 201.64L186.18 210.89Q182.58 209.28 179.15 208.46Q175.72 207.64 172.67 207.64Q168.63 207.64 166.7 208.76Q164.76 209.87 164.76 212.21Q164.76 213.97 166.05 214.97Q167.37 215.93 170.8 216.64L175.6 217.6Q182.9 219.07 185.97 222.06Q189.05 225.04 189.05 230.55Q189.05 237.79 184.74 241.33Q180.47 244.85 171.65 244.85Q167.49 244.85 163.3 244.06Q159.11 243.27 154.92 241.71L154.92 232.19Q159.11 234.42 163.01 235.56Q166.93 236.68 170.56 236.68Q174.26 236.68 176.22 235.45Q178.18 234.21 178.18 231.93Q178.18 229.88 176.83 228.77Q175.51 227.65 171.53 226.77L167.17 225.81Q160.6 224.4 157.56 221.32Q154.54 218.25 154.54 213.03Q154.54 206.5 158.76 202.98Q162.98 199.47 170.89 199.47Q174.49 199.47 178.3 200.03Q182.11 200.55 186.18 201.64ZM226.7 201.64L226.7 210.89Q223.09 209.28 219.67 208.46Q216.24 207.64 213.19 207.64Q209.15 207.64 207.21 208.76Q205.28 209.87 205.28 212.21Q205.28 213.97 206.57 214.97Q207.89 215.93 211.32 216.64L216.12 217.6Q223.42 219.07 226.49 222.06Q229.57 225.04 229.57 230.55Q229.57 237.79 225.26 241.33Q220.98 244.85 212.17 244.85Q208.01 244.85 203.82 244.06Q199.63 243.27 195.44 241.71L195.44 232.19Q199.63 234.42 203.52 235.56Q207.45 236.68 211.08 236.68Q214.77 236.68 216.74 235.45Q218.7 234.21 218.7 231.93Q218.7 229.88 217.35 228.77Q216.03 227.65 212.05 226.77L207.68 225.81Q201.12 224.4 198.07 221.32Q195.06 218.25 195.06 213.03Q195.06 206.5 199.27 202.98Q203.49 199.47 211.4 199.47Q215.01 199.47 218.82 200.03Q222.62 200.55 226.7 201.64Z" />
					</g>
					<g >
						<g >
							<path class="shp2" d="M391 187L177.75 187L177.75 86.26L391 86.26L391 187Z" />
							<path class="shp1" d="M367.12 169.31L153.86 169.31L153.86 68.57L367.12 68.57L367.12 169.31Z" />
							<path class="shp3" d="M367.12 87.63L153.86 87.63L153.86 68.57L367.12 68.57L367.12 87.63Z" />
						</g>
						<g >
							<path class="shp2" d="M180.76 97.11L142.21 97.11L142.21 68.56L180.76 68.56L180.76 97.11Z" />
							<g >
								<path class="shp1" d="M170.55 89.55L132 89.55L132 61L170.55 61L170.55 89.55Z" />
								<g >
									<path class="shp4" d="M141.35 84.23L139.18 82.62L161.2 66.31L163.37 67.92L141.35 84.23Z" />
									<path class="shp4" d="M161.2 84.23L139.18 67.92L141.35 66.31L163.37 82.62L161.2 84.23Z" />
								</g>
							</g>
						</g>
						<path fill="#415487" d="M168.49 149L168.49 105.26L179.77 105.26L179.77 121.93L196.41 121.93L196.41 105.26L207.69 105.26L207.69 149L196.41 149L196.41 130.46L179.77 130.46L179.77 149L168.49 149ZM213.49 113.79L213.49 105.26L253.8 105.26L253.8 113.79L239.3 113.79L239.3 149L228.02 149L228.02 113.79L213.49 113.79ZM259.63 149L259.63 105.26L273.99 105.26L283.95 128.67L293.97 105.26L308.3 105.26L308.3 149L297.63 149L297.63 117.01L287.55 140.59L280.4 140.59L270.33 117.01L270.33 149L259.63 149ZM319.34 149L319.34 105.26L330.62 105.26L330.62 140.47L350.42 140.47L350.42 149L319.34 149Z" />
					</g>
					<g >
						<g >
							<path class="shp2" d="M816.27 232.83L666.68 232.83L666.68 137.4L816.27 137.4L816.27 232.83Z" />
							<path class="shp1" d="M799.51 216.07L649.92 216.07L649.92 120.64L799.51 120.64L799.51 216.07Z" />
							<path class="shp3" d="M799.51 138.7L649.92 138.7L649.92 120.64L799.51 120.64L799.51 138.7Z" />
						</g>
						<g >
							<path class="shp2" d="M668.79 147.68L641.75 147.68L641.75 120.64L668.79 120.64L668.79 147.68Z" />
							<g >
								<path class="shp1" d="M661.63 140.52L634.59 140.52L634.59 113.48L661.63 113.48L661.63 140.52Z" />
								<g >
									<path class="shp4" d="M641.15 135.49L639.62 133.97L655.07 118.52L656.6 120.04L641.15 135.49Z" />
									<path class="shp4" d="M655.07 135.49L639.62 120.04L641.15 118.52L656.6 133.97L655.07 135.49Z" />
								</g>
							</g>
						</g>
						<path fill="#415487" d="M696.97 193.75L696.97 154.26L708.25 154.26L708.25 193.75Q708.25 201.93 703.8 205.97Q699.37 210.01 690.38 210.01L688.09 210.01L688.09 201.49L689.85 201.49Q693.37 201.49 695.15 199.52Q696.97 197.56 696.97 193.75ZM749.73 155.64L749.73 164.89Q746.13 163.28 742.7 162.46Q739.28 161.64 736.23 161.64Q732.19 161.64 730.25 162.76Q728.32 163.87 728.32 166.21Q728.32 167.97 729.61 168.97Q730.93 169.93 734.35 170.64L739.16 171.6Q746.45 173.07 749.53 176.06Q752.61 179.04 752.61 184.55Q752.61 191.79 748.3 195.33Q744.02 198.85 735.2 198.85Q731.04 198.85 726.85 198.06Q722.66 197.27 718.47 195.71L718.47 186.19Q722.66 188.42 726.56 189.56Q730.49 190.68 734.12 190.68Q737.81 190.68 739.77 189.45Q741.74 188.21 741.74 185.93Q741.74 183.88 740.39 182.77Q739.07 181.65 735.09 180.77L730.72 179.81Q724.16 178.4 721.11 175.32Q718.09 172.25 718.09 167.03Q718.09 160.5 722.31 156.98Q726.53 153.47 734.44 153.47Q738.05 153.47 741.85 154.03Q745.66 154.55 749.73 155.64Z" />
					</g>
					<g >
						<g >
							<path class="shp2" d="M946.18 370.83L767.6 370.83L767.6 256.91L946.18 256.91L946.18 370.83Z" />
							<path class="shp1" d="M926.17 350.83L747.59 350.83L747.59 236.91L926.17 236.91L926.17 350.83Z" />
							<path class="shp3" d="M926.17 258.46L747.59 258.46L747.59 236.91L926.17 236.91L926.17 258.46Z" />
						</g>
						<g >
							<path class="shp2" d="M770.12 269.19L737.84 269.19L737.84 236.91L770.12 236.91L770.12 269.19Z" />
							<g >
								<path class="shp1" d="M761.57 260.64L729.29 260.64L729.29 228.36L761.57 228.36L761.57 260.64Z" />
								<g >
									<path class="shp4" d="M737.12 254.63L735.3 252.82L753.74 234.37L755.56 236.19L737.12 254.63Z" />
									<path class="shp4" d="M753.74 254.63L735.3 236.19L737.12 234.37L755.56 252.82L753.74 254.63Z" />
								</g>
							</g>
						</g>
						<g >
							<path class="shp4" d="M809.56 328.9L783.39 306.75C782.02 305.6 782.02 303.48 783.39 302.32L809.56 280.18C810.65 279.26 812.27 279.4 813.19 280.48C814.1 281.57 813.97 283.19 812.88 284.11L791.36 302.32C789.99 303.48 789.99 305.6 791.36 306.75L812.88 324.97C813.97 325.89 814.1 327.51 813.19 328.59C812.27 329.68 810.65 329.81 809.56 328.9Z" />
							<path class="shp4" d="M860.58 328.59L860.58 328.59C859.66 327.51 859.8 325.89 860.88 324.97L882.41 306.75C883.78 305.6 883.78 303.48 882.41 302.32L860.88 284.11C859.8 283.19 859.66 281.57 860.58 280.49L860.58 280.48C861.5 279.4 863.12 279.26 864.21 280.18L890.38 302.32C891.75 303.48 891.75 305.6 890.38 306.75L864.21 328.9C863.12 329.81 861.5 329.68 860.58 328.59Z" />
							<path class="shp4" d="M821.2 340.47C819.88 339.95 819.24 338.45 819.77 337.13L847.18 268.57C847.71 267.25 849.2 266.61 850.52 267.14C851.84 267.67 852.49 269.16 851.96 270.48L824.55 339.04C824.02 340.36 822.52 341 821.2 340.47Z" />
						</g>
					</g>
				</g>
			</g>
			<g >
				<g >
					<path class="shp4" d="M674.04 496.27C697.78 465.66 873.5 475.3 912.86 515.93C952.23 556.57 851.72 725.52 853.18 871.41C853.42 895.34 649.36 891.27 630.05 868.96C599.66 833.83 595.17 597.96 674.04 496.27Z" />
					<g >
						<g >
							<path class="shp4" d="M400.94 831.28C401.6 851.69 270.53 857.99 261.42 842.41C252.3 826.82 274.69 805.39 292.65 798.41C322.39 786.85 400.03 803.51 400.94 831.28Z" />
							<g >
								<path class="shp1" d="M343.45 782.58C335.78 780.56 315.53 777.8 310.97 778.54C302.44 779.93 285.91 791.27 289.05 796.26C292.19 801.26 307.6 792.94 312.61 793.24C315.96 793.43 325.55 794.88 341.4 797.58L343.45 782.58Z" />
								<path class="shp1" d="M518.73 748.42C529.12 745.89 558.2 672.36 579.36 645.92C600.51 619.48 641.36 630.05 642.38 661.13C644.14 715.16 581.93 800.86 569.73 808.43C552.19 819.33 416.2 838.49 403.69 836.51C391.18 834.52 367.67 803.22 381.68 792.71C395.7 782.2 502.85 752.29 518.73 748.42Z" />
								<path class="shp1" d="M398.1 786.81C387.18 790.02 347.51 777.65 337.4 779.97C327.29 782.29 302.83 793.77 302.04 800C301.25 806.24 333.25 797.25 338.47 797.57C343.7 797.9 373.72 812.07 375.24 820.47C376.75 828.86 351.75 839.12 347.79 847.2C343.83 855.27 355.01 855.4 362.14 852.94C369.26 850.47 386.83 840.95 391.55 840.8C394.69 840.7 402.18 839.47 414.02 837.1L398.1 786.81Z" />
							</g>
							<g style="opacity: 0.502">
								<path class="shp5" d="M343.45 782.58C335.78 780.56 315.53 777.8 310.97 778.54C302.44 779.93 285.91 791.27 289.05 796.26C292.19 801.26 307.6 792.94 312.61 793.24C315.96 793.43 325.55 794.88 341.4 797.58L343.45 782.58Z" />
								<path class="shp5" d="M518.73 748.42C529.12 745.89 558.2 672.36 579.36 645.92C600.51 619.48 641.36 630.05 642.38 661.13C644.14 715.16 581.93 800.86 569.73 808.43C552.19 819.33 416.2 838.49 403.69 836.51C391.18 834.52 367.67 803.22 381.68 792.71C395.7 782.2 502.85 752.29 518.73 748.42Z" />
								<path class="shp5" d="M398.1 786.81C387.18 790.02 347.51 777.65 337.4 779.97C327.29 782.29 302.83 793.77 302.04 800C301.25 806.24 333.25 797.25 338.47 797.57C343.7 797.9 373.72 812.07 375.24 820.47C376.75 828.86 351.75 839.12 347.79 847.2C343.83 855.27 355.01 855.4 362.14 852.94C369.26 850.47 386.83 840.95 391.55 840.8C394.69 840.7 402.18 839.47 414.02 837.1L398.1 786.81Z" />
							</g>
							<path class="shp3" d="M627.98 558.9C602.01 569.47 579.37 602.04 567 625.65C554.64 649.27 541.18 684.15 542.8 687.84C544.41 691.53 579.17 723.07 637.17 723.32C647.28 723.37 670.19 646.16 672.74 619.96C675.29 593.75 672.97 540.58 627.98 558.9Z" />
							<path class="shp6" d="M627.98 558.9C602.01 569.47 579.37 602.04 567 625.65C554.64 649.27 541.18 684.15 542.8 687.84C544.41 691.53 579.17 723.07 637.17 723.32C647.28 723.37 670.19 646.16 672.74 619.96C675.29 593.75 672.97 540.58 627.98 558.9Z" />
							<path class="shp7" d="M534.07 689.63C559.9 720.11 605.14 731.49 643.3 729.62C651.64 729.22 651.24 716.23 642.87 716.64C607.77 718.35 566.72 708.19 542.95 680.14C537.55 673.77 528.71 683.31 534.07 689.63Z" />
						</g>
						<path class="shp3" d="M704.03 533.05C684.03 533.05 625.6 557.84 607.96 600.27C590.33 642.7 567.37 860.78 565.52 866.35C563.66 871.92 656.19 890.76 715.67 890.76C775.14 890.76 839.5 876.96 844.45 870.15C849.4 863.34 816.49 659.38 815.37 642.93C814.24 626.48 799.39 533.05 704.03 533.05Z" />
						<path class="shp7" d="M678.24 535.08C677.33 531.73 671.41 529.83 667.17 535.08C662.94 540.32 638.67 583.29 657.57 594.46C676.47 605.63 711.3 590.27 731.47 563.14C747.31 541.83 747.9 534.47 748.33 529.75C748.76 525.02 738.6 523.26 735.53 529.18C733.97 532.18 714.87 534.15 678.24 535.08Z" />
						<g >
							<path class="shp4" d="M596.42 645.05C589.93 667.88 586.03 691.69 582.27 715.1C578.71 737.27 574.57 760.22 574.25 782.7C574.23 784.19 576.63 784.59 576.91 783.06C580.99 760.31 582.63 737.07 586.35 714.23C590.08 691.31 595.38 668.73 599.46 645.89C599.81 643.92 596.98 643.06 596.42 645.05Z" />
							<path class="shp4" d="M599.85 634.62C598.88 634.5 598.08 635.31 598.2 636.28C597.95 637.86 600.15 639.26 601.5 637.92C602.85 636.57 601.44 634.34 599.85 634.62Z" />
						</g>
						<g >
							<g >
								<path class="shp1" d="M672.54 766.72C685.06 764.1 720.29 655.49 746.61 624.72C772.93 593.94 821.34 608.16 821.34 645.35C821.34 710 746.04 831.87 731.16 840.45C709.76 852.79 544.07 848.54 529.2 845.68C514.32 842.82 487.43 804.48 504.59 792.47C521.76 780.45 653.4 770.73 672.54 766.72Z" />
								<path class="shp1" d="M519.02 787.3C490.85 789.21 467.96 789.81 452.22 794.68C436.49 799.54 394.38 823.11 392.74 828.67C391.65 832.38 395.79 832.82 405.18 829.98C396.45 836.76 392.96 841.83 394.7 845.21C396.45 848.58 407.25 845.8 427.1 836.85C415.32 845.8 410.74 852.13 413.36 855.84C415.98 859.55 423.72 858.13 436.6 851.58C431.92 855.51 430.92 858.78 433.58 861.4C437.58 865.33 471.61 845.71 484.38 845.21C497.14 844.71 508.07 850.94 527.48 845.21L519.02 787.3Z" />
							</g>
							<g >
								<path class="shp3" d="M746.67 539.71C762.44 544.13 820.91 569.23 834.7 604.05C848.5 638.87 821.54 730.64 817.6 733.15C813.66 735.65 746.53 733.91 702.47 698.03C696.21 692.93 710.94 640.16 746.67 539.71Z" />
								<g >
									<path class="shp4" d="M708.83 651.24C704.6 666.19 701.15 681.57 699.63 697.05C699.48 698.57 702.01 698.91 702.3 697.41C705.22 682.21 707.84 667.02 711.29 651.92C711.65 650.33 709.28 649.66 708.83 651.24Z" />
									<path class="shp4" d="M713 644.59C712.15 643.74 710.73 643.96 710.1 644.97C710.04 645.07 709.97 645.17 709.91 645.28C708.98 646.76 710.83 648.61 712.31 647.68C712.41 647.62 712.52 647.55 712.62 647.49C713.63 646.86 713.85 645.45 713 644.59Z" />
								</g>
								<path class="shp7" d="M693.18 698.05C723.33 731.52 774.6 743.12 817.6 739.64C825.88 738.97 825.95 725.97 817.6 726.65C777.8 729.87 730.38 719.96 702.37 688.86C696.76 682.63 687.6 691.85 693.18 698.05Z" />
							</g>
						</g>
					</g>
					<g >
						<path class="shp1" d="M734.9 474.48C734.82 476.24 734.8 477.8 734.86 479.14C734.86 479.3 734.88 479.46 734.88 479.6C735.84 495.6 736.8 527.92 734.88 532.72C721.44 566.36 681.52 590.42 668.4 584.02C655.28 577.62 675.36 549.68 677.6 541.36C677.88 540.28 678.1 538.96 678.26 537.46C678.95 530.79 678.73 521.64 677.6 510C657.76 521.31 639.3 521.31 622.22 510C606.94 499.88 603.3 460.46 605.76 426.18C605.92 424.12 606.08 422.08 606.28 420.08C606.86 413.92 607.64 408 608.6 402.52C610.8 389.7 613.88 379.36 617.42 374.3C644.96 334.94 725.9 361.64 735.84 387.1C741 400.32 740.48 419.64 738.78 437.58C737.46 452.06 735.36 465.66 734.9 474.48Z" />
						<path class="shp8" d="M721.78 450.67C717.69 460.51 708.6 451.37 706.37 424.59C706.15 421.93 681.05 428.76 673.72 398.56C657.59 411.14 644.26 407.81 633.75 388.57C624.75 399.8 614.7 404.32 603.6 402.12C582.07 397.85 577.51 356.4 599.54 337.86C615.04 324.8 630.38 325.61 645.54 340.29C659.36 331.73 674.26 329.93 690.25 334.89C706.96 340.08 717.16 351.21 720.83 368.3C734.13 370.12 745.29 377.02 754.32 389.01C767.87 406.99 741.22 474.27 735.23 474.5C731.23 474.64 726.75 466.7 721.78 450.67Z" />
						<g >
							<path class="shp8" d="M617.05 444.99C617.2 447.57 615.71 449.76 613.72 449.87C611.73 449.99 610 447.99 609.85 445.41C609.7 442.83 611.19 440.64 613.18 440.52C615.17 440.41 616.9 442.41 617.05 444.99Z" />
							<path class="shp8" d="M661.63 447.08C661.78 449.66 660.29 451.85 658.3 451.96C656.31 452.08 654.58 450.08 654.43 447.5C654.28 444.92 655.77 442.73 657.76 442.61C659.75 442.5 661.48 444.49 661.63 447.08Z" />
							<path class="shp8" d="M622 422.43C622.15 424.91 618.15 427.15 613.07 427.45C607.98 427.75 603.75 425.98 603.6 423.5C603.46 421.03 607.46 418.78 612.54 418.48C617.62 418.18 621.86 419.95 622 422.43Z" />
							<path class="shp8" d="M669.21 427.95C668.6 430.36 664.11 431.29 659.18 430.03C654.24 428.77 650.74 425.8 651.36 423.4C651.97 420.99 656.47 420.06 661.4 421.32C666.33 422.58 669.83 425.55 669.21 427.95Z" />
							<path class="shp5" d="M633.04 460.1C631.7 460.83 628.24 462.72 626.77 461.09C624.95 459.08 629.15 431.86 629.94 425.25C630.02 424.54 629.05 424.32 628.85 425.02C625.91 435.48 620.76 463.62 625.89 464.29C628.81 464.67 632.16 463.22 634.04 461.59C634.91 460.85 634.08 459.53 633.04 460.1Z" />
							<g >
								<path class="shp9" d="M659.73 478.99C656.95 482.57 652.06 483.76 647.49 483.87C643.29 483.95 637.69 482.77 635.76 478.57C635.6 478.21 635.46 477.83 635.38 477.44C635.35 477.33 635.32 477.19 635.29 477.06C634.8 474.44 635.9 471.57 638.88 470.91C641.55 470.3 643.9 471.29 646.55 471.13C648.67 471.02 650.22 470.08 651.93 468.89C655.82 466.16 660.17 468.26 661.33 471.95C661.39 472.12 661.44 472.28 661.47 472.45C661.94 474.38 661.5 476.7 659.73 478.99Z" />
								<g >
									<path class="shp5" d="M647.65 477.55C643.57 478.21 639.38 478.38 635.38 477.44C635.35 477.33 635.32 477.19 635.29 477.06C639.43 477.58 643.43 477.88 647.62 477.39C647.73 477.39 647.76 477.55 647.65 477.55Z" />
									<path class="shp5" d="M661.47 472.45C659.51 474.11 657.19 475.29 654.68 476.01C654.57 476.04 654.52 475.87 654.63 475.82C657.11 474.9 659.35 473.61 661.33 471.95C661.39 472.12 661.44 472.28 661.47 472.45Z" />
								</g>
							</g>
						</g>
						<g >
							<path class="shp1" d="M720.83 452.68C723.26 447.27 728.68 436.83 741.54 437.56C754.6 438.31 760.76 451.93 758.15 463.5C755.54 475.07 741.54 486.45 723.82 474.32L720.83 452.68Z" />
							<path class="shp5" d="M747.87 459.63C743.78 457.36 737.05 459.06 733.56 462.8C735.37 457.48 738.08 452.97 742.76 449.15C743.22 448.78 742.62 448.12 742.14 448.38C735.41 452.04 730.35 459.61 731.13 467.44C731.15 467.6 731.23 467.71 731.34 467.8C731.42 468.02 731.71 468.05 731.88 467.89C732.02 467.84 732.15 467.75 732.19 467.55C732.2 467.53 732.21 467.51 732.21 467.49C735.46 462.73 741.69 459.27 747.55 460.44C748.02 460.53 748.31 459.88 747.87 459.63Z" />
						</g>
					</g>
				</g>
				<g >
					<path class="shp4" d="M583.6 859.41L349.24 859.41L349.24 842.83L583.6 849.57L583.6 859.41Z" />
					<g >
						<path class="shp8" d="M454.94 770.14L155.98 770.14C141.5 770.14 129.13 759.66 126.76 745.37L91.62 533.74C88.62 515.69 102.54 499.27 120.84 499.27L419.8 499.27C434.28 499.27 446.64 509.75 449.02 524.04L484.16 735.66C487.16 753.71 473.24 770.14 454.94 770.14Z" />
						<path class="shp4" d="M435.52 770.14L136.56 770.14C122.08 770.14 109.72 759.66 107.34 745.37L72.2 533.74C69.2 515.69 83.13 499.27 101.42 499.27L400.38 499.27C414.87 499.27 427.23 509.75 429.6 524.04L464.74 735.66C467.74 753.71 453.82 770.14 435.52 770.14Z" />
						<path class="shp4" d="M392.9 859.41L146.08 859.41L146.08 848.89L392.9 848.89L392.9 859.41Z" />
						<path class="shp8" d="M315.02 848.89L194.68 848.89L217.17 676.37L337.51 676.37L315.02 848.89Z" />
						<path class="shp10" d="M298.96 848.89L178.61 848.89L201.1 676.37L321.45 676.37L298.96 848.89Z" />
						<g >
							<path class="shp10" d="M202.48 648.3C199.8 648.3 197.51 646.36 197.06 643.72L189.41 598.12C188.84 594.77 191.43 591.72 194.82 591.72C197.5 591.72 199.79 593.65 200.24 596.3L207.89 641.9C208.46 645.25 205.87 648.3 202.48 648.3Z" />
							<path class="shp10" d="M221.12 648.3C218.44 648.3 216.15 646.36 215.7 643.72L208.05 598.12C207.49 594.77 210.07 591.72 213.46 591.72C216.14 591.72 218.43 593.65 218.88 596.3L226.53 641.9C227.1 645.25 224.51 648.3 221.12 648.3Z" />
							<path class="shp10" d="M239.76 648.3C237.08 648.3 234.79 646.36 234.34 643.72L226.69 598.12C226.13 594.77 228.71 591.72 232.1 591.72C234.78 591.72 237.07 593.65 237.52 596.3L245.17 641.9C245.74 645.25 243.15 648.3 239.76 648.3Z" />
							<path class="shp10" d="M258.4 648.3C255.72 648.3 253.43 646.36 252.99 643.72L245.33 598.12C244.77 594.77 247.35 591.72 250.74 591.72C253.42 591.72 255.71 593.65 256.16 596.3L263.81 641.9C264.38 645.25 261.79 648.3 258.4 648.3Z" />
							<path class="shp10" d="M277.04 648.3C274.36 648.3 272.07 646.36 271.63 643.72L263.97 598.12C263.41 594.77 265.99 591.72 269.38 591.72C272.06 591.72 274.35 593.65 274.8 596.3L282.45 641.9C283.02 645.25 280.43 648.3 277.04 648.3Z" />
							<path class="shp10" d="M295.68 648.3C293 648.3 290.71 646.36 290.27 643.72L282.61 598.12C282.05 594.77 284.63 591.72 288.02 591.72C290.7 591.72 292.99 593.65 293.44 596.3L301.09 641.9C301.66 645.25 299.07 648.3 295.68 648.3Z" />
							<path class="shp10" d="M314.32 648.3C311.64 648.3 309.35 646.36 308.91 643.72L301.25 598.12C300.69 594.77 303.27 591.72 306.66 591.72C309.34 591.72 311.63 593.65 312.08 596.3L319.73 641.9C320.3 645.25 317.71 648.3 314.32 648.3Z" />
							<path class="shp10" d="M332.96 648.3C330.28 648.3 327.99 646.36 327.55 643.72L319.89 598.12C319.33 594.77 321.91 591.72 325.3 591.72C327.98 591.72 330.27 593.65 330.72 596.3L338.37 641.9C338.94 645.25 336.36 648.3 332.96 648.3Z" />
						</g>
					</g>
				</g>
				<path class="shp8" d="M941.17 890.76L71.79 890.76L71.79 859.41L941.17 859.41L941.17 890.76Z" />
			</g>
			<g >
				<path class="shp1" d="M635.82 761.93L881.21 761.93L881.21 810.55L635.82 810.55L635.82 761.93Z" />
				<path class="shp4" d="M635.82 761.93L835.7 761.93L835.7 810.55L635.82 810.55L635.82 761.93Z" />
				<g >
					<path class="shp1" d="M687.66 778.01L808.8 778.01L808.8 794.47L687.66 794.47L687.66 778.01Z" />
					<path class="shp1" d="M651.96 786.24C651.96 780.91 656.28 776.59 661.61 776.59C666.94 776.59 671.26 780.91 671.26 786.24C671.26 791.57 666.94 795.89 661.61 795.89C656.28 795.89 651.96 791.57 651.96 786.24Z" />
				</g>
			</g>
			<g >
				<path class="shp10" d="M907 859.17L661.61 859.17L661.61 810.55L907 810.55L907 859.17Z" />
				<path class="shp8" d="M907 859.17L707.12 859.17L707.12 810.55L907 810.55L907 859.17Z" />
				<g >
					<path class="shp1" d="M855.16 843.09L734.02 843.09L734.02 826.62L855.16 826.62L855.16 843.09Z" />
					<path class="shp1" d="M890.87 834.86C890.87 840.19 886.54 844.51 881.21 844.51C875.88 844.51 871.56 840.19 871.56 834.86C871.56 829.53 875.88 825.21 881.21 825.21C886.54 825.21 890.87 829.53 890.87 834.86Z" />
				</g>
			</g>
		</g>
	</g>
</svg>